<?xml version="1.0" encoding="UTF-8" standalone="no"?>
<!DOCTYPE svg PUBLIC "-//W3C//DTD SVG 1.1//EN"
 "http://www.w3.org/Graphics/SVG/1.1/DTD/svg11.dtd">
<!-- Generated by graphviz version 14.0.4 (0)
 -->
<!-- Title: G Pages: 1 -->
<svg width="683pt" height="260pt"
 viewBox="0.00 0.00 683.00 260.00" xmlns="http://www.w3.org/2000/svg" xmlns:xlink="http://www.w3.org/1999/xlink">
<g id="graph0" class="graph" transform="scale(1 1) rotate(0) translate(4 256)">
<title>G</title><style>.edge>path:hover{stroke-width:8}</style>
<polygon fill="white" stroke="none" points="-4,4 -4,-256 678.68,-256 678.68,4 -4,4"/>
<!-- anyio -->
<g id="node1" class="node">
<title>anyio</title><style>.edge>path:hover{stroke-width:8}</style>
<ellipse fill="#c43131" stroke="black" cx="312.68" cy="-90" rx="27" ry="18"/>
<text xml:space="preserve" text-anchor="middle" x="312.68" y="-86.12" font-family="Helvetica,sans-Serif" font-size="10.00" fill="#ffffff">anyio</text>
</g>
<!-- sniffio -->
<g id="node10" class="node">
<title>sniffio</title><style>.edge>path:hover{stroke-width:8}</style>
<ellipse fill="#c926d9" stroke="black" cx="384.68" cy="-18" rx="27" ry="18"/>
<text xml:space="preserve" text-anchor="middle" x="384.68" y="-14.12" font-family="Helvetica,sans-Serif" font-size="10.00" fill="#ffffff">sniffio</text>
</g>
<!-- anyio&#45;&gt;sniffio -->
<g id="edge11" class="edge">
<title>anyio&#45;&gt;sniffio</title><style>.edge>path:hover{stroke-width:8}</style>
<path fill="none" stroke="black" d="M327.6,-74.5C337.44,-64.92 350.54,-52.19 361.7,-41.34"/>
<polygon fill="#c43131" stroke="black" points="363.96,-44.02 368.69,-34.54 359.08,-39 363.96,-44.02"/>
</g>
<!-- box -->
<g id="node2" class="node">
<title>box</title><style>.edge>path:hover{stroke-width:8}</style>
<ellipse fill="#c08540" stroke="black" cx="49.68" cy="-162" rx="27" ry="18"/>
<text xml:space="preserve" text-anchor="middle" x="49.68" y="-158.12" font-family="Helvetica,sans-Serif" font-size="10.00" fill="#000000">box</text>
</g>
<!-- cachetools -->
<g id="node3" class="node">
<title>cachetools</title><style>.edge>path:hover{stroke-width:8}</style>
<ellipse fill="#b4c040" stroke="black" cx="131.68" cy="-162" rx="37.42" ry="18"/>
<text xml:space="preserve" text-anchor="middle" x="131.68" y="-158.12" font-family="Helvetica,sans-Serif" font-size="10.00" fill="#000000">cachetools</text>
</g>
<!-- cryptography -->
<g id="node4" class="node">
<title>cryptography</title><style>.edge>path:hover{stroke-width:8}</style>
<ellipse fill="#6ec040" stroke="black" cx="229.68" cy="-162" rx="42.75" ry="18"/>
<text xml:space="preserve" text-anchor="middle" x="229.68" y="-158.12" font-family="Helvetica,sans-Serif" font-size="10.00" fill="#000000">cryptography</text>
</g>
<!-- httpx -->
<g id="node5" class="node">
<title>httpx</title><style>.edge>path:hover{stroke-width:8}</style>
<ellipse fill="#31c44b" stroke="black" cx="384.68" cy="-90" rx="27" ry="18"/>
<text xml:space="preserve" text-anchor="middle" x="384.68" y="-86.12" font-family="Helvetica,sans-Serif" font-size="10.00" fill="#000000">httpx</text>
</g>
<!-- httpx&#45;&gt;sniffio -->
<g id="edge12" class="edge">
<title>httpx&#45;&gt;sniffio</title><style>.edge>path:hover{stroke-width:8}</style>
<path fill="none" stroke="black" d="M384.68,-71.7C384.68,-64.41 384.68,-55.73 384.68,-47.54"/>
<polygon fill="#31c44b" stroke="black" points="388.18,-47.62 384.68,-37.62 381.18,-47.62 388.18,-47.62"/>
</g>
<!-- httpx_ws -->
<g id="node6" class="node">
<title>httpx_ws</title><style>.edge>path:hover{stroke-width:8}</style>
<ellipse fill="#3ab090" stroke="black" cx="323.68" cy="-162" rx="32.99" ry="18"/>
<text xml:space="preserve" text-anchor="middle" x="323.68" y="-158.12" font-family="Helvetica,sans-Serif" font-size="10.00" fill="#000000">httpx_ws</text>
</g>
<!-- httpx_ws&#45;&gt;anyio -->
<g id="edge1" class="edge">
<title>httpx_ws&#45;&gt;anyio</title><style>.edge>path:hover{stroke-width:8}</style>
<path fill="none" stroke="black" d="M320.96,-143.7C319.8,-136.32 318.42,-127.52 317.12,-119.25"/>
<polygon fill="#3ab090" stroke="black" points="320.61,-118.93 315.6,-109.6 313.7,-120.02 320.61,-118.93"/>
</g>
<!-- httpx_ws&#45;&gt;httpx -->
<g id="edge6" class="edge">
<title>httpx_ws&#45;&gt;httpx</title><style>.edge>path:hover{stroke-width:8}</style>
<path fill="none" stroke="black" d="M337.22,-145.46C345.14,-136.37 355.31,-124.7 364.2,-114.5"/>
<polygon fill="#3ab090" stroke="black" points="366.67,-116.99 370.6,-107.15 361.39,-112.39 366.67,-116.99"/>
</g>
<!-- jsonpath -->
<g id="node7" class="node">
<title>jsonpath</title><style>.edge>path:hover{stroke-width:8}</style>
<ellipse fill="#409dc0" stroke="black" cx="443.68" cy="-162" rx="31.21" ry="18"/>
<text xml:space="preserve" text-anchor="middle" x="443.68" y="-158.12" font-family="Helvetica,sans-Serif" font-size="10.00" fill="#000000">jsonpath</text>
</g>
<!-- kr8s -->
<g id="node8" class="node">
<title>kr8s</title><style>.edge>path:hover{stroke-width:8}</style>
<ellipse fill="#263473" stroke="black" cx="353.68" cy="-234" rx="27" ry="18"/>
<text xml:space="preserve" text-anchor="middle" x="353.68" y="-230.12" font-family="Helvetica,sans-Serif" font-size="10.00" fill="#ffffff">kr8s</text>
</g>
<!-- kr8s&#45;&gt;anyio -->
<g id="edge2" class="edge">
<title>kr8s&#45;&gt;anyio</title><style>.edge>path:hover{stroke-width:8}</style>
<path fill="none" stroke="black" d="M326.3,-233.09C252.81,-232.67 54.04,-227.14 13.68,-180 -58.77,-95.38 178.18,-89.28 274.15,-90.16"/>
<polygon fill="#263473" stroke="black" points="273.84,-93.65 283.88,-90.28 273.92,-86.65 273.84,-93.65"/>
</g>
<!-- kr8s&#45;&gt;box -->
<g id="edge3" class="edge">
<title>kr8s&#45;&gt;box</title><style>.edge>path:hover{stroke-width:8}</style>
<path fill="none" stroke="black" d="M326.88,-229.92C278,-223.81 171.49,-208.27 85.68,-180 84.12,-179.49 82.54,-178.92 80.96,-178.32"/>
<polygon fill="#263473" stroke="black" points="82.61,-175.22 72.04,-174.55 79.88,-181.67 82.61,-175.22"/>
</g>
<!-- kr8s&#45;&gt;cachetools -->
<g id="edge4" class="edge">
<title>kr8s&#45;&gt;cachetools</title><style>.edge>path:hover{stroke-width:8}</style>
<path fill="none" stroke="black" d="M329.04,-226.1C294.87,-216.41 231.23,-197.94 177.68,-180 175.47,-179.26 173.21,-178.49 170.93,-177.69"/>
<polygon fill="#263473" stroke="black" points="172.31,-174.47 161.72,-174.39 169.95,-181.06 172.31,-174.47"/>
</g>
<!-- kr8s&#45;&gt;cryptography -->
<g id="edge5" class="edge">
<title>kr8s&#45;&gt;cryptography</title><style>.edge>path:hover{stroke-width:8}</style>
<path fill="none" stroke="black" d="M333.48,-221.6C314.79,-211.05 286.62,-195.15 264.34,-182.57"/>
<polygon fill="#263473" stroke="black" points="266.32,-179.67 255.89,-177.8 262.88,-185.76 266.32,-179.67"/>
</g>
<!-- kr8s&#45;&gt;httpx -->
<g id="edge7" class="edge">
<title>kr8s&#45;&gt;httpx</title><style>.edge>path:hover{stroke-width:8}</style>
<path fill="none" stroke="black" d="M357.62,-215.83C359.99,-205.46 363.04,-191.98 365.68,-180 370.14,-159.69 375.04,-136.74 378.74,-119.23"/>
<polygon fill="#263473" stroke="black" points="382.14,-120.06 380.79,-109.56 375.3,-118.62 382.14,-120.06"/>
</g>
<!-- kr8s&#45;&gt;httpx_ws -->
<g id="edge8" class="edge">
<title>kr8s&#45;&gt;httpx_ws</title><style>.edge>path:hover{stroke-width:8}</style>
<path fill="none" stroke="black" d="M346.57,-216.41C343.25,-208.68 339.22,-199.27 335.47,-190.52"/>
<polygon fill="#263473" stroke="black" points="338.7,-189.16 331.54,-181.35 332.26,-191.92 338.7,-189.16"/>
</g>
<!-- kr8s&#45;&gt;jsonpath -->
<g id="edge9" class="edge">
<title>kr8s&#45;&gt;jsonpath</title><style>.edge>path:hover{stroke-width:8}</style>
<path fill="none" stroke="black" d="M370.61,-219.83C383.59,-209.73 401.78,-195.59 416.75,-183.94"/>
<polygon fill="#263473" stroke="black" points="418.65,-186.9 424.4,-178 414.35,-181.37 418.65,-186.9"/>
</g>
<!-- packaging -->
<g id="node9" class="node">
<title>packaging</title><style>.edge>path:hover{stroke-width:8}</style>
<ellipse fill="#6e40c0" stroke="black" cx="528.68" cy="-162" rx="35.65" ry="18"/>
<text xml:space="preserve" text-anchor="middle" x="528.68" y="-158.12" font-family="Helvetica,sans-Serif" font-size="10.00" fill="#ffffff">packaging</text>
</g>
<!-- kr8s&#45;&gt;packaging -->
<g id="edge10" class="edge">
<title>kr8s&#45;&gt;packaging</title><style>.edge>path:hover{stroke-width:8}</style>
<path fill="none" stroke="black" d="M376.56,-223.85C405.61,-212.23 456.13,-192.02 490.93,-178.1"/>
<polygon fill="#263473" stroke="black" points="491.79,-181.52 499.78,-174.56 489.19,-175.02 491.79,-181.52"/>
</g>
<!-- kr8s&#45;&gt;sniffio -->
<g id="edge13" class="edge">
<title>kr8s&#45;&gt;sniffio</title><style>.edge>path:hover{stroke-width:8}</style>
<path fill="none" stroke="black" d="M380.34,-230.61C433.55,-225.25 549.85,-210.25 573.68,-180 625.98,-113.6 487.28,-54.46 419.49,-30.42"/>
<polygon fill="#263473" stroke="black" points="420.89,-27.2 410.3,-27.23 418.6,-33.82 420.89,-27.2"/>
</g>
<!-- yaml -->
<g id="node11" class="node">
<title>yaml</title><style>.edge>path:hover{stroke-width:8}</style>
<ellipse fill="#c04085" stroke="black" cx="647.68" cy="-162" rx="27" ry="18"/>
<text xml:space="preserve" text-anchor="middle" x="647.68" y="-158.12" font-family="Helvetica,sans-Serif" font-size="10.00" fill="#ffffff">yaml</text>
</g>
<!-- kr8s&#45;&gt;yaml -->
<g id="edge14" class="edge">
<title>kr8s&#45;&gt;yaml</title><style>.edge>path:hover{stroke-width:8}</style>
<path fill="none" stroke="black" d="M379.94,-229.16C426.36,-222 525.64,-205.05 606.68,-180 609.45,-179.14 612.29,-178.17 615.12,-177.14"/>
<polygon fill="#263473" stroke="black" points="616.38,-180.4 624.42,-173.5 613.83,-173.88 616.38,-180.4"/>
</g>
</g>
</svg>
