<?xml version="1.0" standalone="no"?>
<!DOCTYPE svg PUBLIC "-//W3C//DTD SVG 20010904//EN"
 "http://www.w3.org/TR/2001/REC-SVG-20010904/DTD/svg10.dtd">
<svg version="1.0" xmlns="http://www.w3.org/2000/svg"
 width="430.000000pt" height="430.000000pt" viewBox="0 0 430.000000 430.000000"
 preserveAspectRatio="xMidYMid meet">
<metadata>
Created by potrace 1.14, written by Peter Selinger 2001-2017
</metadata>
<g transform="translate(0.000000,430.000000) scale(0.100000,-0.100000)"
fill="#000000" stroke="none">
<path d="M1978 4259 c-566 -47 -1092 -318 -1455 -752 -408 -489 -573 -1134
-447 -1757 150 -744 681 -1347 1398 -1585 486 -162 1000 -145 1479 50 832 340
1364 1196 1297 2088 -79 1054 -896 1874 -1949 1956 -148 12 -180 12 -323 0z
m407 -154 c183 -24 265 -45 265 -66 0 -11 -7 -19 -15 -19 -25 0 -112 -48 -118
-65 -4 -8 -18 -15 -33 -15 -22 0 -25 -2 -14 -15 7 -8 20 -15 28 -15 12 0 13
-3 4 -12 -19 -19 -14 -28 14 -28 35 0 64 -17 64 -38 0 -10 6 -24 12 -30 10
-10 6 -18 -17 -37 -17 -13 -38 -24 -49 -25 -13 0 -17 -5 -13 -20 3 -10 -1 -24
-8 -30 -8 -6 -11 -18 -8 -26 3 -8 0 -21 -7 -29 -10 -13 -9 -15 11 -16 13 -1
32 -1 42 0 10 2 17 -5 17 -16 0 -15 4 -14 20 7 l20 25 0 -28 c0 -21 -6 -30
-20 -34 -13 -3 -20 -14 -20 -29 0 -29 -10 -30 -41 -5 -13 10 -48 30 -77 45
-29 15 -69 41 -90 59 -59 51 -69 58 -99 63 -48 8 -127 36 -144 51 -9 8 -29 16
-45 19 -16 3 -32 8 -36 12 -4 4 -5 81 -1 170 l6 162 121 0 c67 0 171 -7 231
-15z m-461 -22 c-2 -16 -4 -97 -5 -181 -1 -125 -4 -152 -15 -148 -8 3 -14 1
-14 -4 0 -6 6 -10 13 -11 6 0 3 -4 -8 -8 -11 -5 -30 -4 -43 0 -24 9 -109 -19
-143 -48 -8 -7 -21 -13 -27 -13 -7 0 -12 -6 -12 -12 0 -9 -3 -9 -9 1 -7 11
-13 12 -23 3 -8 -6 -19 -7 -26 -3 -8 4 -24 6 -37 4 -20 -4 -22 -9 -15 -32 6
-22 3 -29 -16 -38 -13 -6 -24 -7 -24 -2 0 5 4 9 9 9 5 0 12 8 15 17 6 15 4 15
-14 -2 -13 -11 -20 -31 -20 -52 0 -31 -2 -34 -22 -28 -23 7 -23 7 -3 -8 19
-16 19 -16 -5 -10 -14 3 -36 15 -49 27 l-23 21 21 -37 c22 -40 19 -46 -16 -43
-13 1 -23 -2 -23 -7 0 -4 9 -8 20 -8 17 0 19 -2 8 -14 -7 -8 -15 -10 -18 -6
-7 11 -28 17 -27 8 1 -3 -8 -18 -21 -31 -15 -16 -20 -27 -13 -32 21 -13 11
-25 -16 -20 -27 6 -27 6 -9 -9 11 -9 17 -16 14 -16 -4 0 -15 -3 -25 -6 -15 -5
-15 -4 -3 5 13 9 13 11 -2 11 -10 0 -18 -4 -18 -9 0 -5 -8 -11 -17 -13 -15 -3
-15 -5 2 -21 17 -18 17 -19 -9 -46 -15 -15 -32 -28 -39 -29 -6 0 -39 -5 -72
-10 -40 -6 -62 -6 -67 1 -3 6 -9 49 -13 96 -5 69 -3 92 9 116 9 17 16 45 16
63 0 31 -1 32 -41 32 l-41 0 7 -47 c9 -58 10 -236 2 -258 -4 -8 -15 -15 -26
-15 -18 0 -19 11 -25 168 -3 92 -8 191 -12 220 -11 96 -4 110 90 174 218 149
485 258 753 308 134 25 131 25 127 -7z m710 -140 c-17 -27 -31 -26 -38 3 -9
33 12 50 34 28 11 -11 12 -19 4 -31z m-1759 -857 c8 -3 105 -6 215 -6 119 -1
209 -6 222 -12 23 -11 23 -13 20 -167 -2 -86 1 -199 7 -251 7 -52 13 -113 15
-135 2 -22 8 -52 14 -66 5 -14 16 -69 22 -123 7 -53 14 -95 16 -93 2 2 -1 62
-7 133 -26 324 -17 443 46 604 61 157 125 270 152 270 8 0 12 3 10 8 -3 4 1
13 9 20 8 7 14 9 14 3 0 -5 7 -12 16 -15 14 -5 15 -4 5 8 -11 13 -9 14 14 10
20 -3 25 -1 19 8 -6 10 -4 10 7 0 12 -11 12 -14 -1 -23 -11 -7 -8 -8 11 -3 34
7 48 -13 17 -25 -16 -7 -3 -8 45 -6 54 3 66 1 58 -8 -8 -10 -2 -12 27 -10 31
3 34 2 15 -7 -13 -5 -23 -11 -23 -14 0 -5 54 9 69 18 5 3 63 7 129 8 66 2 118
6 115 10 -2 5 12 8 32 8 22 0 34 4 30 10 -3 6 4 14 17 19 14 5 25 5 29 -1 4
-6 16 -7 28 -3 12 3 19 11 15 16 -3 6 11 3 30 -5 20 -8 34 -11 31 -6 -3 6 4
10 15 10 16 0 20 -4 16 -16 -4 -10 -2 -13 7 -7 35 22 116 25 147 6 51 -33 100
-107 77 -116 -7 -3 -5 -6 5 -6 9 -1 20 -10 23 -22 4 -12 16 -30 26 -40 11 -11
17 -24 14 -29 -3 -5 4 -14 15 -20 13 -7 19 -18 16 -26 -3 -8 -2 -14 2 -14 14
0 52 -89 52 -121 0 -17 4 -28 10 -24 5 3 7 0 4 -9 -3 -8 2 -29 11 -46 9 -18
12 -29 6 -26 -6 4 -11 3 -11 -3 0 -5 4 -11 9 -13 5 -1 11 -21 14 -43 2 -22 10
-53 17 -70 17 -43 20 -237 4 -320 -7 -38 -15 -86 -18 -105 -6 -46 -17 -82 -27
-96 -5 -6 -6 -14 -3 -17 9 -8 -24 -40 -34 -33 -4 2 -7 -9 -6 -25 3 -48 -5 -67
-27 -62 -15 4 -18 2 -13 -11 7 -19 0 -20 -27 -5 -17 9 -21 7 -26 -10 -3 -12
-10 -21 -15 -21 -5 0 -6 5 -2 12 4 6 3 8 -3 5 -5 -3 -8 -20 -7 -37 1 -17 -1
-28 -4 -25 -7 7 -8 9 -12 43 -1 11 -3 12 -7 4 -2 -6 -9 -9 -15 -6 -7 5 -9 -3
-5 -21 3 -17 0 -34 -8 -42 -18 -18 -30 -17 -15 2 18 21 9 34 -18 24 -18 -7
-22 -14 -18 -31 3 -13 3 -17 0 -10 -3 6 -11 9 -16 6 -7 -4 -8 -2 -4 4 4 7 2
12 -3 12 -14 0 -14 -16 0 -43 11 -20 9 -20 -13 3 -13 14 -23 28 -21 32 2 4 -1
17 -7 28 -7 14 -7 20 0 20 6 0 6 7 -2 20 -7 11 -17 20 -23 20 -5 0 -21 15 -35
32 -14 18 -36 43 -49 55 -13 13 -21 23 -18 23 13 0 -39 52 -84 86 -54 39 -55
39 -63 18 -5 -14 -4 -15 8 -5 16 14 26 -3 33 -61 4 -34 2 -38 -22 -44 -14 -4
-36 -2 -48 3 -38 17 -129 13 -147 -5 -19 -21 -50 -25 -50 -6 0 17 -17 18 -23
2 -4 -10 -8 -9 -16 2 -9 12 -11 10 -11 -12 0 -27 0 -27 -29 -10 -24 14 -31 14
-45 3 -15 -13 -15 -15 3 -29 17 -15 18 -18 3 -40 -11 -18 -17 -20 -23 -10 -7
10 -9 10 -9 1 0 -7 -4 -13 -10 -13 -5 0 -10 7 -10 15 0 8 -4 15 -9 15 -4 0 -6
11 -3 25 2 14 7 25 11 25 4 0 5 15 3 34 -2 18 3 47 12 64 19 36 19 42 7 42 -5
0 -12 -9 -16 -19 -3 -11 -15 -23 -25 -26 -11 -3 -19 -9 -18 -13 3 -15 -15 -42
-28 -42 -8 0 -14 -10 -14 -22 0 -27 -57 -88 -76 -81 -8 3 -14 0 -14 -5 0 -6
-8 -18 -17 -27 -9 -9 -17 -31 -17 -49 -1 -17 -7 -40 -14 -51 l-12 -20 2 20 c2
12 -2 19 -9 17 -7 -1 -13 3 -13 9 0 5 -4 7 -10 4 -5 -3 -10 0 -11 7 0 7 -4 4
-9 -7 -8 -19 -9 -19 -9 -1 -1 16 -4 17 -13 8 -10 -10 -15 -7 -25 10 -13 22
-13 22 -8 -7 4 -26 3 -25 -6 5 -6 19 -17 53 -25 75 -8 23 -14 55 -14 72 0 18
-4 34 -8 37 -10 6 -6 -66 9 -174 l11 -75 -38 -32 c-37 -33 -67 -45 -45 -19 9
11 -35 14 -275 21 -203 5 -289 4 -297 -4 -20 -20 -39 -12 -35 15 3 22 18 33
108 75 105 48 107 49 230 54 69 3 144 8 167 11 47 7 49 24 4 24 -15 0 -50 12
-77 26 -27 14 -79 37 -116 51 -55 19 -72 22 -89 12 -14 -7 -44 -9 -83 -5 -48
5 -72 2 -114 -14 -65 -25 -86 -26 -78 -4 6 15 0 16 -43 11 -27 -3 -68 -15 -91
-27 -23 -12 -44 -20 -46 -17 -2 2 10 16 26 32 17 16 30 34 30 40 0 7 -19 20
-41 31 -48 21 -89 51 -89 65 0 18 39 9 66 -16 34 -31 44 -31 90 0 20 14 43 25
51 25 12 0 70 25 82 36 2 2 -11 21 -29 44 -31 39 -33 40 -96 40 -51 0 -62 3
-58 14 4 10 -5 18 -28 24 -18 5 -60 26 -93 46 -50 30 -56 36 -34 36 15 0 38
-10 53 -21 19 -15 43 -22 79 -23 45 -1 53 2 63 24 7 14 14 36 16 50 3 25 2 25
-72 28 -41 2 -78 6 -82 10 -4 4 17 32 48 62 30 30 60 62 65 72 9 16 5 18 -29
18 -46 0 -174 42 -180 58 -6 19 63 14 100 -7 45 -26 111 -36 126 -19 9 12 32
120 32 156 0 34 -238 -6 -265 -45 -8 -11 -29 -26 -46 -32 l-30 -10 7 32 c23
109 136 348 234 497 81 124 122 173 244 298 l101 102 3 -274 c2 -230 5 -275
17 -280z m1825 538 c0 -2 -9 -4 -21 -4 -11 0 -18 4 -14 10 5 8 35 3 35 -6z
m24 -63 c3 -5 -2 -19 -12 -31 -16 -20 -19 -21 -31 -6 -12 14 -11 19 5 31 22
17 31 18 38 6z m136 0 c0 -14 -18 -23 -30 -16 -6 4 -8 11 -5 16 8 12 35 12 35
0z m-270 -15 c0 -3 -4 -8 -10 -11 -5 -3 -10 -1 -10 4 0 6 5 11 10 11 6 0 10
-2 10 -4z m290 -89 c0 -30 25 -52 77 -71 22 -8 58 -25 79 -39 42 -26 86 -41
149 -52 22 -4 45 -10 50 -15 6 -4 34 -11 62 -15 52 -7 53 -7 73 28 43 72 78
57 60 -26 -19 -81 -19 -81 -80 -61 -46 15 -63 16 -122 6 -102 -18 -189 -64
-240 -128 l-43 -54 -22 43 c-12 23 -22 49 -23 58 0 20 -23 69 -32 69 -4 0 -17
19 -29 43 -12 23 -36 58 -53 78 -75 86 -85 102 -71 116 8 7 22 13 33 13 11 0
35 7 53 15 52 22 79 19 79 -8z m798 -90 c24 -31 42 -64 40 -74 -3 -20 9 -43
22 -43 5 0 7 8 4 18 -3 9 12 -10 34 -43 35 -53 38 -61 23 -69 -14 -9 -12 -11
9 -16 16 -4 34 -21 48 -48 l23 -42 -120 0 c-138 0 -152 7 -146 68 3 36 4 37
39 34 20 -2 36 -1 36 1 0 3 -17 40 -39 83 -30 61 -40 96 -45 154 -8 85 -13 87
72 -23z m-2305 39 c9 5 9 4 0 -6 -13 -15 -37 -4 -26 13 5 8 8 8 11 -1 2 -7 9
-9 15 -6z m2153 -74 c-22 -22 -32 -7 -17 25 12 25 13 26 23 9 8 -13 6 -22 -6
-34z m37 -26 c5 -13 -21 -46 -35 -46 -14 0 -16 31 -2 45 19 19 30 19 37 1z
m-1123 -30 c0 -3 -4 -8 -10 -11 -5 -3 -10 -1 -10 4 0 6 5 11 10 11 6 0 10 -2
10 -4z m1133 -115 c-2 -13 1 -20 7 -16 11 7 14 -57 3 -68 -9 -9 -43 22 -43 40
0 7 5 13 12 13 6 0 3 6 -7 14 -17 12 -17 16 -6 30 18 22 37 14 34 -13z m-413
-75 c0 -2 -7 -7 -16 -10 -8 -3 -12 -2 -9 4 6 10 25 14 25 6z m-40 -11 c0 -2
-14 -12 -31 -21 -17 -8 -28 -11 -24 -4 4 6 17 15 29 20 27 11 26 11 26 5z
m801 -112 c66 -146 119 -335 153 -540 l6 -33 -83 0 -83 0 -28 93 c-41 135 -95
234 -170 305 -57 55 -64 65 -69 112 -4 36 -3 49 5 44 10 -7 10 7 -3 56 -3 12
14 16 96 21 55 3 110 6 123 7 19 2 28 -9 53 -65z m-587 1 c9 -8 16 -17 16 -20
0 -2 -30 -4 -67 -4 -65 0 -66 0 -48 20 22 24 77 27 99 4z m-267 -80 c-3 -3
-12 -4 -19 -1 -8 3 -5 6 6 6 11 1 17 -2 13 -5z m43 -4 c0 -5 -7 -7 -15 -4 -8
4 -15 8 -15 10 0 2 7 4 15 4 8 0 15 -4 15 -10z m175 -4 c115 -7 185 -17 185
-26 0 -4 -19 -4 -42 0 -45 8 -192 19 -266 20 -24 0 -41 4 -37 9 3 5 20 8 38 6
17 -2 73 -7 122 -9z m-2765 -126 c0 -5 -14 -10 -31 -10 -17 0 -28 4 -24 10 3
6 17 10 31 10 13 0 24 -4 24 -10z m-200 -165 c7 -9 10 -18 7 -21 -7 -8 -47 14
-47 26 0 15 26 12 40 -5z m2708 3 c14 -14 16 -52 3 -44 -13 9 -39 -3 -45 -21
-8 -20 24 -184 34 -178 10 6 2 -64 -16 -138 -14 -59 -91 -204 -102 -192 -9 9
-11 35 -3 35 4 0 5 24 4 53 -3 47 0 58 27 92 17 22 34 52 37 68 3 16 12 31 19
34 8 3 14 9 14 15 0 5 -4 7 -9 4 -5 -3 -12 5 -15 18 -3 13 -16 26 -28 30 -13
3 -29 10 -36 14 -16 10 -5 43 12 36 16 -6 51 67 36 76 -12 7 -3 40 11 40 5 0
8 3 7 8 -1 4 2 19 6 35 9 29 25 34 44 15z m20 -148 c0 -19 -3 -44 -8 -55 -6
-13 -8 7 -8 60 0 55 3 72 8 55 4 -14 8 -41 8 -60z m-2808 -25 c0 -2 -9 -9 -20
-15 -16 -9 -20 -8 -20 5 0 8 9 15 20 15 11 0 20 -2 20 -5z m95 -105 c3 -5 -1
-10 -9 -10 -8 0 -18 5 -21 10 -3 6 1 10 9 10 8 0 18 -4 21 -10z m3699 4 c13
-5 16 -27 16 -135 0 -71 -4 -129 -9 -129 -17 0 -101 213 -101 257 0 14 64 18
94 7z m-1137 -96 c-2 -13 -4 -5 -4 17 -1 22 1 32 4 23 2 -10 2 -28 0 -40z
m-2677 -28 c13 -8 12 -13 -7 -32 l-23 -22 0 32 c0 34 5 38 30 22z m30 -160 c0
-5 -4 -10 -10 -10 -5 0 -10 5 -10 10 0 6 5 10 10 10 6 0 10 -4 10 -10z m2534
-6 c3 -8 2 -12 -4 -9 -6 3 -10 10 -10 16 0 14 7 11 14 -7z m-913 -77 c-6 -8
-7 -18 -3 -22 4 -5 2 -5 -5 -1 -14 8 -6 36 9 36 7 0 6 -5 -1 -13z m-1456 -56
c-5 -8 -55 -12 -55 -4 0 2 10 7 23 12 24 9 41 5 32 -8z m2042 -17 c-3 -3 -12
-4 -19 -1 -8 3 -5 6 6 6 11 1 17 -2 13 -5z m-353 -126 c-3 -5 -11 -5 -17 -2
-8 5 -8 3 0 -6 15 -17 151 -17 182 -1 29 16 44 13 39 -7 -4 -15 -1 -18 20 -14
19 4 23 2 17 -9 -6 -11 -5 -11 5 -2 13 12 43 6 35 -7 -3 -5 -1 -11 5 -15 5 -3
10 -19 10 -36 0 -22 -5 -29 -20 -29 -11 0 -21 -6 -22 -12 0 -7 -2 -17 -3 -23
-2 -5 -3 -16 -4 -23 0 -7 -5 -11 -10 -8 -11 7 -25 -22 -22 -45 1 -10 -8 -19
-24 -23 -22 -6 -25 -10 -15 -21 10 -12 8 -13 -7 -10 -27 5 -47 -10 -40 -28 4
-11 1 -14 -9 -10 -8 3 -14 -1 -14 -8 0 -8 -6 -5 -15 7 -8 10 -15 15 -14 9 1
-5 1 -19 -1 -30 l-1 -20 -9 20 c-6 15 -9 16 -9 4 -1 -12 -10 -16 -36 -14 -24
1 -35 -3 -35 -12 0 -8 5 -11 10 -8 6 3 10 1 10 -4 0 -16 -20 -13 -26 4 -9 22
-23 18 -17 -5 6 -22 -22 -29 -30 -7 -3 8 -10 6 -21 -8 -16 -21 -20 -15 -17 30
1 17 -1 16 -11 -5 -9 -21 -12 -22 -15 -7 -5 20 -14 22 -31 5 -7 -7 -18 -13
-25 -13 -7 -1 -11 -7 -9 -15 3 -11 0 -11 -13 0 -12 10 -13 16 -4 26 9 12 15
12 28 2 14 -11 14 -11 3 4 -16 20 -37 18 -58 -8 -15 -19 -15 -18 -11 4 3 12 1
20 -3 17 -12 -8 -41 6 -34 16 3 5 0 9 -5 9 -6 0 -11 -6 -12 -12 0 -8 -3 -7 -6
2 -4 8 -12 20 -19 27 -6 7 -11 26 -10 42 1 19 -2 27 -10 24 -7 -2 -15 0 -18 5
-3 6 1 13 10 16 8 3 12 11 9 17 -4 6 -14 8 -22 4 -13 -4 -14 -3 -3 10 7 9 8
15 2 15 -6 0 -9 20 -9 45 1 25 5 45 10 45 4 0 6 3 5 8 -2 4 10 21 25 37 15 17
36 40 47 53 16 18 24 21 39 13 13 -7 23 -7 35 2 19 14 229 0 220 -15z m-584
13 c0 -6 -4 -12 -8 -15 -5 -3 -9 1 -9 9 0 8 4 15 9 15 4 0 8 -4 8 -9z m-1154
-146 c7 -18 -17 -75 -32 -75 -19 0 -51 34 -46 49 3 8 0 11 -7 7 -6 -4 -11 -1
-11 8 0 18 15 24 58 25 20 1 35 -5 38 -14z m365 -38 c-9 -12 -2 -16 39 -21
l50 -7 1 -92 c1 -86 2 -89 11 -47 7 31 21 55 44 75 30 27 42 31 99 33 l64 1
-49 -68 c-28 -37 -50 -71 -50 -76 0 -10 100 -1 210 20 47 8 127 22 179 30 74
11 106 21 150 49 59 36 90 47 89 32 0 -5 6 -13 14 -17 10 -7 10 -9 0 -9 -10 0
-10 -3 0 -14 7 -7 19 -11 26 -8 10 3 13 -1 10 -14 -2 -10 -13 -20 -25 -22 -27
-4 -48 -27 -33 -37 5 -3 10 0 10 7 0 7 16 18 35 24 l36 11 91 -88 c84 -82 99
-93 120 -90 4 0 5 -5 2 -13 -3 -7 2 -16 11 -20 9 -3 13 -2 10 4 -3 6 -2 10 3
10 6 0 12 -6 15 -14 4 -9 14 -12 26 -9 14 4 21 1 21 -9 0 -29 71 -87 133 -107
34 -12 69 -21 80 -21 10 0 15 -4 12 -10 -3 -5 0 -10 7 -10 7 0 24 -3 37 -7 14
-3 22 -2 18 3 -8 13 15 41 38 45 11 2 25 15 31 28 12 24 67 55 78 43 9 -9 56
20 56 35 0 7 5 13 10 13 6 0 26 16 46 35 19 19 43 35 54 35 24 0 81 75 73 96
-3 8 0 14 6 14 14 0 102 86 95 93 -3 3 6 14 20 25 15 11 26 25 26 32 0 6 5 8
13 4 9 -6 9 -5 1 7 -9 11 -9 17 1 26 10 10 14 9 19 -3 3 -9 6 -22 6 -30 0 -8
10 -28 21 -44 47 -63 43 -193 -9 -304 -32 -67 -118 -176 -140 -176 -7 0 -10
-5 -7 -10 3 -6 2 -10 -4 -10 -8 0 -101 -57 -126 -77 -5 -5 -27 -19 -47 -32
-21 -12 -38 -26 -38 -30 0 -5 -21 -25 -47 -46 l-48 -38 35 7 c19 3 52 15 72
26 35 18 38 18 35 2 -4 -23 -16 -42 -28 -42 -6 0 -7 5 -3 11 10 16 -29 -6 -46
-25 -7 -9 -17 -16 -23 -16 -5 0 -2 10 9 22 19 22 19 23 -1 8 -11 -8 -31 -23
-45 -35 -18 -15 -21 -16 -11 -2 17 22 7 34 -14 17 -9 -7 -18 -10 -22 -7 -3 4
-12 2 -20 -4 -7 -6 -13 -8 -13 -4 0 4 -12 -1 -27 -11 -24 -15 -26 -15 -14 -1
8 10 9 17 3 17 -6 0 -14 -5 -17 -10 -4 -7 -13 -6 -27 1 -15 8 -19 8 -14 0 4
-6 2 -11 -3 -11 -6 0 -11 -7 -11 -15 0 -20 16 -19 24 1 3 8 10 12 16 9 6 -4 8
-10 5 -15 -3 -4 2 -10 10 -14 8 -3 15 -1 15 5 0 6 6 9 13 6 6 -2 11 -11 9 -21
-3 -19 9 -21 26 -3 18 17 64 17 58 0 -9 -24 12 -14 39 18 35 43 41 32 8 -17
-31 -45 -43 -56 -60 -49 -7 2 -13 0 -13 -5 0 -14 87 -12 96 1 5 9 -1 10 -20 5
-24 -6 -26 -5 -17 11 5 10 29 38 54 63 52 54 94 88 58 47 -14 -15 -21 -30 -17
-34 4 -4 12 0 17 10 6 9 15 17 21 17 7 0 -1 -14 -18 -31 -23 -25 -25 -29 -7
-20 12 6 23 16 25 21 2 6 12 12 24 12 12 1 21 10 21 21 2 15 -1 16 -13 7 -8
-7 -14 -9 -14 -4 0 5 19 22 41 37 32 24 38 32 28 43 -7 8 -9 17 -5 21 3 3 6 1
6 -6 0 -8 8 -7 29 4 17 8 38 12 48 9 15 -5 15 -4 3 5 -11 7 -4 9 28 6 23 -2
40 0 37 5 -3 5 0 12 6 16 7 4 9 3 5 -4 -3 -6 -2 -13 4 -17 18 -11 0 -26 -20
-15 -18 10 -72 -10 -85 -31 -9 -14 7 -10 29 6 25 19 33 19 33 0 0 -9 -5 -14
-11 -12 -6 2 -24 -2 -40 -10 -15 -8 -25 -10 -22 -4 11 18 -6 12 -49 -15 -22
-14 -30 -23 -17 -19 13 4 22 2 22 -4 0 -6 -7 -11 -15 -11 -8 0 -15 -4 -15 -10
0 -5 7 -7 15 -4 8 4 15 1 15 -6 0 -9 7 -7 20 5 11 10 17 21 15 25 -3 4 6 15
20 24 32 21 41 20 24 -1 -9 -11 -1 -8 21 7 l35 24 -30 -35 c-16 -20 -33 -35
-36 -33 -4 2 -23 -7 -43 -21 -40 -27 -51 -31 -41 -15 3 6 2 10 -4 10 -15 0
-23 -18 -9 -22 6 -2 8 -10 4 -17 -5 -7 -15 -10 -23 -7 -8 3 -24 -3 -35 -14
-12 -11 -17 -20 -11 -20 7 0 18 7 26 15 8 8 17 12 20 8 3 -3 20 2 38 11 18 9
41 16 51 16 11 0 17 4 14 8 -3 5 31 41 76 81 77 69 83 73 124 69 34 -2 44 1
47 14 3 9 0 19 -7 22 -6 2 -1 5 12 5 13 1 22 7 22 16 0 9 -7 15 -16 13 -10 -2
-19 3 -22 11 -3 9 0 11 8 6 9 -6 12 -4 8 6 -3 8 0 23 8 33 7 11 11 23 7 29 -3
6 -1 7 5 3 6 -3 17 7 25 24 11 21 12 30 4 30 -7 1 -3 9 8 18 11 10 28 32 38
50 17 31 17 32 0 32 -16 1 -15 3 6 20 14 12 18 20 10 20 -9 0 -10 3 -3 8 14
10 26 42 15 42 -10 0 -9 15 4 42 4 10 5 25 1 33 -3 8 -1 15 4 15 21 0 9 31
-15 40 -14 5 -25 16 -25 24 0 8 -4 17 -8 20 -10 6 -13 -144 -4 -159 12 -19 12
-46 0 -44 -32 4 -46 -3 -57 -28 -9 -19 -9 -29 -2 -31 6 -2 9 -8 6 -12 -3 -5
-12 -7 -19 -4 -19 7 -30 -14 -16 -31 8 -10 8 -15 -1 -21 -8 -5 -9 -3 -4 6 6
10 4 12 -8 7 -10 -3 -17 -3 -17 2 0 4 -7 8 -15 8 -8 0 -15 -5 -15 -10 0 -5 -7
-6 -16 -3 -8 3 -13 2 -11 -2 2 -4 -9 -20 -25 -35 -15 -15 -28 -24 -28 -19 0 4
5 13 12 20 7 7 9 12 5 12 -4 0 0 8 8 18 8 9 16 22 17 27 3 16 22 33 31 28 4
-2 4 -10 1 -16 -4 -7 -3 -8 2 -4 5 5 9 18 10 30 1 12 5 31 9 41 6 13 5 17 -2
13 -7 -5 -9 0 -6 14 4 16 8 17 14 7 6 -8 9 2 9 29 0 23 4 44 9 47 5 4 7 29 4
56 -2 28 0 64 5 80 9 24 8 30 -6 35 -9 3 -28 20 -42 38 l-25 32 36 -28 c20
-15 43 -27 52 -27 9 0 19 -5 23 -12 5 -7 2 -9 -7 -4 -8 4 -5 1 5 -8 10 -8 23
-13 28 -10 4 3 34 -10 66 -29 31 -19 93 -47 137 -62 44 -16 136 -56 205 -90
136 -67 162 -78 230 -95 57 -15 190 -70 190 -79 0 -11 -72 -114 -131 -186 -78
-96 -259 -268 -355 -337 -122 -87 -211 -138 -229 -132 -10 4 -15 2 -13 -7 2
-9 -4 -13 -16 -11 -10 2 -15 -1 -12 -6 7 -12 -168 -90 -295 -130 -345 -110
-728 -121 -1079 -30 -125 32 -312 101 -334 123 -7 8 -16 12 -19 9 -5 -5 -70
29 -194 102 -36 21 -41 35 -18 54 8 7 15 17 15 23 0 5 24 46 54 91 51 78 96
155 141 243 12 23 26 48 32 55 6 7 28 47 49 88 21 41 49 86 61 100 13 14 18
27 12 30 -14 9 0 40 18 40 8 0 12 3 10 8 -8 13 12 52 28 52 8 0 15 3 16 8 3
29 10 45 24 56 16 11 15 14 -10 30 -31 21 -58 15 -48 -10 5 -13 2 -16 -10 -11
-11 4 -14 2 -10 -9 3 -10 -1 -17 -14 -20 -11 -3 -28 -25 -39 -50 -10 -24 -22
-44 -26 -44 -5 0 -8 -7 -8 -15 0 -8 -4 -15 -10 -15 -5 0 -10 -6 -10 -13 0 -8
-9 -25 -21 -38 -12 -13 -25 -33 -30 -44 -5 -11 -18 -33 -28 -50 -10 -16 -17
-33 -15 -36 2 -4 -3 -12 -11 -19 -8 -7 -15 -21 -15 -32 0 -10 -7 -21 -15 -24
-8 -3 -17 -16 -21 -27 -4 -12 -19 -40 -34 -62 -15 -22 -30 -50 -34 -63 -4 -12
-12 -20 -17 -17 -5 4 -9 -1 -9 -9 0 -9 -4 -16 -10 -16 -5 0 -9 -5 -7 -10 1 -6
-9 -16 -23 -23 -14 -8 -24 -18 -23 -24 1 -6 -9 -14 -23 -17 -17 -5 -24 -12
-20 -21 3 -8 1 -15 -5 -15 -5 0 -14 -12 -19 -26 l-10 -25 -59 46 c-63 49 -78
70 -58 79 7 3 3 4 -8 1 -16 -4 -40 14 -97 73 l-77 77 4 53 c3 30 7 59 11 65 3
7 -2 3 -10 -7 -9 -11 -16 -36 -16 -55 l-1 -36 -35 40 c-20 22 -63 80 -95 129
l-60 89 48 34 c26 19 69 46 96 59 l47 24 -1 73 c-1 100 -2 102 -79 104 -53 1
-68 6 -82 24 -24 28 -23 48 4 71 15 13 30 17 48 13 25 -5 139 18 170 35 20 11
26 4 11 -13z m1579 -107 c0 -5 -2 -10 -4 -10 -3 0 -8 5 -11 10 -3 6 -1 10 4
10 6 0 11 -4 11 -10z m670 -305 c0 -11 -29 -11 -33 -1 -4 10 1 12 14 9 10 -3
19 -7 19 -8z m-114 -83 c1 -7 0 -8 -3 -2 -5 12 -24 14 -22 3 3 -21 -2 -33 -15
-33 -8 0 -18 -5 -22 -12 -4 -6 -3 -8 3 -5 5 3 10 0 10 -8 0 -8 -3 -13 -5 -10
-3 3 -11 0 -19 -6 -10 -9 -13 -7 -10 9 2 11 9 27 16 36 7 9 10 16 5 16 -5 1 2
7 16 15 28 16 43 15 46 -3z m-120 -54 c-1 -14 4 -22 12 -20 10 2 10 -2 0 -17
-7 -11 -16 -17 -21 -14 -5 3 -3 9 4 14 8 5 9 9 3 9 -6 0 -18 -10 -27 -22 -13
-20 -17 -21 -29 -9 -7 8 -8 11 -3 9 13 -7 36 17 27 28 -4 4 -1 4 6 0 8 -5 12
-1 12 12 0 15 8 32 15 32 1 0 1 -10 1 -22z m197 7 c-3 -9 -8 -14 -10 -11 -3 3
-2 9 2 15 9 16 15 13 8 -4z m-90 -20 c-3 -9 -8 -14 -10 -11 -3 3 -2 9 2 15 9
16 15 13 8 -4z m-19 -41 c5 -12 10 -14 19 -5 10 8 14 7 14 -4 0 -8 -7 -17 -14
-19 -8 -3 -12 -10 -9 -14 3 -5 -1 -9 -9 -9 -8 0 -13 5 -12 11 1 6 -9 12 -23
14 l-25 4 30 -33 c17 -18 22 -27 13 -20 -19 14 -21 11 -21 -32 0 -19 -54 -63
-65 -53 -3 4 -7 13 -8 21 -2 11 2 12 16 5 19 -10 47 10 32 24 -4 4 -7 13 -7
19 0 7 -6 13 -12 13 -7 1 -18 2 -24 3 -5 0 -8 5 -5 10 3 5 -3 11 -14 14 -16 4
-18 2 -11 -11 7 -12 -1 -21 -36 -40 -41 -21 -46 -22 -62 -8 -10 9 -20 15 -22
14 -2 -2 5 5 16 14 11 10 26 18 33 18 7 0 15 7 18 15 4 8 10 15 16 15 5 0 7
-4 4 -9 -3 -5 2 -15 12 -22 15 -12 16 -12 5 2 -7 9 -10 19 -6 23 4 4 1 11 -7
16 -9 6 -10 10 -3 10 6 0 15 -5 18 -10 5 -8 12 -7 22 2 18 15 101 20 109 6 3
-4 10 -8 16 -8 6 0 3 9 -7 20 -10 11 -13 20 -8 20 6 0 14 -7 17 -16z m-264
-124 c-9 -5 -9 -9 -1 -11 6 -2 3 -9 -9 -16 -16 -11 -18 -10 -13 3 5 14 3 15
-15 5 -16 -9 -22 -9 -22 0 0 6 9 13 20 16 11 3 20 9 20 14 0 5 7 6 16 2 11 -4
12 -8 4 -13z m20 -40 c-8 -5 -19 -10 -25 -10 -5 0 -3 5 5 10 8 5 20 10 25 10
6 0 3 -5 -5 -10z m35 -30 c-3 -5 -11 -10 -16 -10 -6 0 -7 5 -4 10 3 6 11 10
16 10 6 0 7 -4 4 -10z m-170 -30 c-3 -5 -11 -10 -16 -10 -6 0 -7 5 -4 10 3 6
11 10 16 10 6 0 7 -4 4 -10z m175 6 c0 -2 -7 -7 -16 -10 -8 -3 -12 -2 -9 4 6
10 25 14 25 6z"/>
<path d="M2318 2615 c-2 -3 -32 -6 -66 -9 -92 -6 -173 -50 -129 -70 6 -3 2 -3
-10 0 -18 4 -26 -1 -34 -20 -14 -30 -6 -56 21 -63 11 -3 20 -9 20 -14 0 -5 5
-8 12 -6 6 1 14 -7 16 -18 5 -25 22 -46 32 -40 4 2 16 -2 26 -10 24 -18 38
-19 31 -2 -5 14 26 17 39 4 15 -15 26 -6 13 10 -10 11 -10 14 -1 9 7 -4 12 -2
12 7 0 8 9 17 20 20 11 3 18 2 15 -3 -3 -4 2 -11 11 -14 21 -8 26 -8 21 2 -3
4 17 5 44 4 27 -2 49 -8 49 -13 0 -5 12 -8 28 -7 15 1 37 -2 50 -6 14 -5 27
-2 37 7 9 9 26 14 43 11 38 -6 60 19 64 74 1 6 6 12 12 12 6 0 4 5 -4 10 -8 5
-11 10 -6 10 5 0 3 7 -4 15 -7 8 -9 23 -6 32 4 10 4 14 0 11 -3 -4 -16 2 -27
13 -14 13 -30 18 -44 14 -12 -3 -25 0 -29 6 -4 8 -9 7 -15 -2 -7 -11 -9 -11
-9 1 0 8 -10 16 -22 17 -58 6 -206 11 -210 8z m10 -164 c3 -8 -1 -12 -9 -9 -7
2 -15 10 -17 17 -3 8 1 12 9 9 7 -2 15 -10 17 -17z"/>
<path d="M1665 2590 c-11 -4 -28 -6 -37 -4 -10 1 -18 -2 -18 -7 0 -6 -8 -5
-20 1 -16 9 -24 6 -44 -13 -12 -12 -27 -22 -33 -20 -5 2 -16 -4 -24 -14 -12
-15 -12 -16 1 -9 8 4 4 -2 -10 -13 l-25 -21 37 0 c20 0 40 -4 43 -10 3 -5 2
-10 -4 -10 -6 0 -10 -19 -9 -44 2 -35 5 -43 18 -38 8 3 18 10 21 15 4 6 19 1
36 -11 23 -16 30 -18 30 -6 0 7 -7 14 -15 14 -9 0 -12 6 -8 16 3 9 6 18 6 20
0 3 5 2 10 -1 6 -3 10 0 10 7 1 7 7 -2 15 -19 11 -25 20 -33 40 -33 14 0 25
-5 25 -12 0 -6 6 -3 14 8 14 18 16 18 32 2 20 -20 12 -37 -9 -19 -12 9 -14 7
-13 -11 1 -14 -4 -22 -12 -20 -8 1 -11 -2 -8 -7 4 -6 25 0 51 12 34 17 43 26
39 40 -4 13 1 17 24 17 17 0 33 -6 35 -12 3 -8 6 -6 6 5 1 9 4 17 9 17 8 0 32
48 32 66 0 7 6 15 13 17 6 3 2 6 -10 6 -13 1 -23 5 -23 10 0 5 -11 12 -25 15
-14 4 -24 10 -21 15 8 12 -43 32 -99 38 -27 3 -52 9 -55 13 -3 4 -14 4 -25 0z
m60 -150 c3 -6 -1 -7 -9 -4 -18 7 -21 14 -7 14 6 0 13 -4 16 -10z m70 -10 c3
-5 1 -10 -4 -10 -6 0 -11 5 -11 10 0 6 2 10 4 10 3 0 8 -4 11 -10z"/>
<path d="M1570 1860 c0 -5 5 -10 11 -10 5 0 7 5 4 10 -3 6 -8 10 -11 10 -2 0
-4 -4 -4 -10z"/>
<path d="M2020 1672 c0 -5 -10 -7 -23 -5 -15 3 -30 -4 -45 -20 -24 -25 -24
-25 -3 -32 12 -3 21 -11 21 -16 0 -6 -4 -7 -10 -4 -5 3 -10 1 -10 -5 0 -7 8
-9 20 -5 15 5 20 2 20 -14 0 -11 3 -22 8 -25 10 -6 43 19 35 27 -3 4 -1 7 6 7
9 0 12 -9 9 -25 -4 -21 -3 -23 13 -14 18 9 23 20 20 45 -1 6 6 17 14 24 13 11
15 10 9 -6 -5 -18 -5 -18 9 -1 11 13 16 15 20 5 2 -7 5 3 5 22 0 36 0 36 -41
35 -23 -1 -50 3 -59 7 -10 5 -18 5 -18 0z m47 -114 c-3 -8 -6 -5 -6 6 -1 11 2
17 5 13 3 -3 4 -12 1 -19z"/>
<path d="M1636 1395 c-9 -26 -7 -32 5 -12 6 10 9 21 6 23 -2 3 -7 -2 -11 -11z"/>
<path d="M3065 1341 c-3 -5 -1 -13 5 -16 6 -4 8 -15 5 -26 -4 -10 -2 -19 3
-19 5 0 8 -28 6 -65 -3 -56 -1 -65 14 -66 14 0 14 -2 -3 -9 -11 -5 -16 -9 -11
-9 5 -1 2 -9 -5 -18 -11 -13 -11 -15 -1 -9 9 5 12 3 10 -6 -2 -7 1 -14 6 -15
10 -2 26 -24 26 -38 0 -5 -5 -3 -11 5 -9 13 -10 13 -6 0 5 -20 37 -26 37 -7 0
9 6 18 13 20 9 4 8 8 -3 17 -13 10 -12 11 4 6 13 -5 17 -2 12 9 -3 8 0 15 6
15 7 0 7 4 -1 13 -6 8 -8 17 -5 20 3 3 -4 20 -16 36 -15 22 -17 31 -8 31 9 1
8 5 -4 14 -14 10 -15 15 -5 25 9 10 8 11 -5 6 -13 -5 -15 -2 -11 14 4 17 1 21
-18 22 -13 0 -18 3 -11 6 6 2 12 9 12 15 0 15 -28 39 -35 29z"/>
<path d="M1603 1225 c0 -33 2 -45 4 -27 2 18 2 45 0 60 -2 15 -4 0 -4 -33z"/>
<path d="M1671 1229 c0 -13 4 -33 9 -44 7 -14 8 -8 3 20 -7 46 -13 59 -12 24z"/>
<path d="M2505 1179 c-10 -15 3 -25 16 -12 7 7 7 13 1 17 -6 3 -14 1 -17 -5z"/>
<path d="M2882 1176 c7 -8 17 -12 22 -9 4 3 2 9 -5 14 -22 13 -31 11 -17 -5z"/>
<path d="M1690 1155 c0 -19 65 -123 105 -167 22 -24 58 -57 80 -73 24 -18 7 3
-40 50 -48 48 -94 104 -113 140 -17 33 -32 56 -32 50z"/>
<path d="M1611 1134 c0 -11 3 -14 6 -6 3 7 2 16 -1 19 -3 4 -6 -2 -5 -13z"/>
<path d="M2407 1128 c-25 -27 -14 -35 13 -10 12 11 18 22 13 24 -4 3 -16 -4
-26 -14z"/>
<path d="M1621 1094 c0 -11 3 -14 6 -6 3 7 2 16 -1 19 -3 4 -6 -2 -5 -13z"/>
<path d="M3162 1055 c-7 -15 -8 -27 -2 -30 6 -4 10 -1 10 4 0 6 6 11 14 11 9
0 12 7 9 20 -7 27 -17 25 -31 -5z"/>
<path d="M1557 1043 c-12 -11 -8 -23 7 -23 7 0 19 7 26 15 10 12 9 15 -7 15
-11 0 -23 -3 -26 -7z"/>
<path d="M2186 1014 c-9 -9 -13 -20 -10 -26 4 -6 -4 -19 -17 -30 l-24 -19 35
4 c48 7 123 36 93 37 -31 0 -29 20 2 20 14 0 25 5 25 11 0 7 -11 9 -27 6 -15
-3 -35 -1 -45 4 -11 6 -21 4 -32 -7z"/>
<path d="M3126 1003 c-6 -14 -5 -15 5 -6 7 7 10 15 7 18 -3 3 -9 -2 -12 -12z"/>
<path d="M2300 990 c-12 -7 -10 -9 8 -7 12 0 22 5 22 9 0 11 -12 10 -30 -2z"/>
<path d="M3190 996 c0 -2 7 -7 16 -10 8 -3 12 -2 9 4 -6 10 -25 14 -25 6z"/>
<path d="M3111 976 c12 -10 60 -16 54 -6 -3 5 -18 10 -32 10 -15 0 -24 -2 -22
-4z"/>
<path d="M1575 930 c28 -12 47 -12 40 0 -3 6 -18 10 -33 9 -24 0 -25 -1 -7 -9z"/>
<path d="M2178 921 c8 -5 -13 -8 -50 -7 -51 1 -62 -2 -59 -14 9 -37 5 -45 -22
-48 -16 -2 -34 1 -40 7 -7 5 -18 7 -25 2 -29 -18 117 -76 218 -87 41 -5 43 -4
27 9 -13 11 -15 16 -5 19 10 4 11 13 2 47 -10 36 -9 43 3 48 11 4 5 10 -17 19
-36 16 -52 18 -32 5z"/>
<path d="M1565 910 c3 -5 10 -10 16 -10 5 0 9 5 9 10 0 6 -7 10 -16 10 -8 0
-12 -4 -9 -10z"/>
<path d="M1925 880 c3 -5 14 -10 23 -10 15 0 15 2 2 10 -20 13 -33 13 -25 0z"/>
<path d="M2634 835 c-17 -13 -17 -14 -2 -15 9 0 20 5 23 11 11 17 0 20 -21 4z"/>
<path d="M2815 810 c-3 -5 0 -10 8 -10 9 0 13 -9 12 -25 -4 -30 -2 -30 16 -8
10 11 10 14 2 9 -7 -4 -13 -3 -13 3 0 5 5 13 10 16 6 4 8 11 5 16 -8 12 -32
12 -40 -1z"/>
<path d="M2800 780 c0 -5 5 -10 11 -10 5 0 7 5 4 10 -3 6 -8 10 -11 10 -2 0
-4 -4 -4 -10z"/>
<path d="M2308 773 c7 -3 16 -2 19 1 4 3 -2 6 -13 5 -11 0 -14 -3 -6 -6z"/>
<path d="M2146 728 c3 -5 10 -6 15 -3 13 9 11 12 -6 12 -8 0 -12 -4 -9 -9z"/>
<path d="M1605 700 c-3 -5 -1 -10 4 -10 6 0 11 5 11 10 0 6 -2 10 -4 10 -3 0
-8 -4 -11 -10z"/>
<path d="M2435 689 c-15 -15 -17 -22 -7 -28 8 -4 10 -15 6 -26 -6 -15 -4 -17
10 -12 10 4 23 7 31 7 7 0 15 9 18 20 6 23 -8 27 -17 5 -3 -8 -10 -15 -15 -15
-17 0 -21 31 -6 46 8 9 15 17 15 20 0 9 -16 2 -35 -17z"/>
<path d="M2601 667 c-7 -9 -1 -12 20 -13 16 -1 28 3 26 9 -5 15 -34 17 -46 4z"/>
<path d="M2036 657 c3 -10 9 -15 12 -12 3 3 0 11 -7 18 -10 9 -11 8 -5 -6z"/>
<path d="M2305 659 c-4 -6 -5 -12 -2 -15 2 -3 7 2 10 11 7 17 1 20 -8 4z"/>
<path d="M2750 649 c0 -5 5 -7 10 -4 6 3 10 8 10 11 0 2 -4 4 -10 4 -5 0 -10
-5 -10 -11z"/>
<path d="M2242 630 c-11 -19 -10 -20 23 -20 19 0 35 5 35 10 0 6 -11 8 -25 4
-20 -5 -24 -3 -19 10 8 22 1 20 -14 -4z"/>
<path d="M3040 641 c0 -6 4 -13 10 -16 6 -3 7 1 4 9 -7 18 -14 21 -14 7z"/>
<path d="M2572 624 c-7 -8 -10 -19 -6 -26 5 -8 2 -9 -9 -5 -21 8 -22 -6 -1
-23 8 -8 14 -9 13 -4 -1 5 0 12 1 17 1 4 3 13 4 20 1 6 10 11 21 9 11 -2 16 1
10 5 -5 5 -12 11 -15 15 -3 3 -11 0 -18 -8z"/>
<path d="M3068 603 c7 -3 16 -2 19 1 4 3 -2 6 -13 5 -11 0 -14 -3 -6 -6z"/>
<path d="M1580 582 c0 -11 41 -34 48 -27 4 4 -2 13 -12 21 -22 15 -36 18 -36
6z"/>
<path d="M3053 525 c0 -8 4 -12 9 -9 4 3 8 9 8 15 0 5 -4 9 -8 9 -5 0 -9 -7
-9 -15z"/>
<path d="M2440 520 c0 -5 7 -7 15 -4 8 4 15 8 15 10 0 2 -7 4 -15 4 -8 0 -15
-4 -15 -10z"/>
<path d="M1170 510 c0 -5 7 -10 16 -10 8 0 12 5 9 10 -3 6 -10 10 -16 10 -5 0
-9 -4 -9 -10z"/>
<path d="M1625 480 c-3 -5 -1 -10 4 -10 6 0 11 5 11 10 0 6 -2 10 -4 10 -3 0
-8 -4 -11 -10z"/>
<path d="M2638 333 c7 -3 16 -2 19 1 4 3 -2 6 -13 5 -11 0 -14 -3 -6 -6z"/>
<path d="M2298 253 c7 -3 16 -2 19 1 4 3 -2 6 -13 5 -11 0 -14 -3 -6 -6z"/>
<path d="M2755 952 c-17 -12 -12 -30 14 -49 13 -9 21 -11 17 -5 -4 7 -2 12 5
12 8 0 6 6 -4 18 -10 10 -14 22 -10 25 9 9 -9 9 -22 -1z"/>
<path d="M2625 895 c-16 -7 -24 -14 -17 -14 7 -1 10 -5 7 -11 -4 -6 2 -7 16
-2 12 5 23 16 25 25 1 10 2 17 1 17 -1 -1 -15 -7 -32 -15z"/>
</g>
</svg>
